<mxfile host="Electron" modified="2023-04-09T15:04:49.963Z" agent="Mozilla/5.0 (Macintosh; Intel Mac OS X 10_15_7) AppleWebKit/537.36 (KHTML, like Gecko) draw.io/21.1.2 Chrome/106.0.5249.199 Electron/21.4.3 Safari/537.36" etag="ZcVbI-E_h01zGF-m29ib" version="21.1.2" type="device">
  <diagram name="Page-1" id="97916047-d0de-89f5-080d-49f4d83e522f">
    <mxGraphModel dx="909" dy="583" grid="1" gridSize="10" guides="1" tooltips="1" connect="1" arrows="1" fold="1" page="1" pageScale="1.5" pageWidth="1169" pageHeight="827" background="none" math="0" shadow="0">
      <root>
        <mxCell id="0" />
        <mxCell id="1" parent="0" />
        <mxCell id="wfQN2HbRyZ9VnJTfPjWH-97" style="edgeStyle=orthogonalEdgeStyle;rounded=1;hachureGap=4;orthogonalLoop=1;jettySize=auto;html=1;fontFamily=Architects Daughter;fontSource=https%3A%2F%2Ffonts.googleapis.com%2Fcss%3Ffamily%3DArchitects%2BDaughter;fontSize=16;strokeColor=#23445D;strokeWidth=4;shadow=1;endArrow=block;endFill=1;" edge="1" parent="1" source="2" target="wfQN2HbRyZ9VnJTfPjWH-98">
          <mxGeometry relative="1" as="geometry">
            <mxPoint x="1390" y="290" as="targetPoint" />
          </mxGeometry>
        </mxCell>
        <mxCell id="2" value="App" style="rounded=1;fillColor=#10739E;strokeColor=none;shadow=1;gradientColor=none;fontStyle=1;fontColor=#FFFFFF;fontSize=14;" parent="1" vertex="1">
          <mxGeometry x="682" y="200" width="200" height="64.5" as="geometry" />
        </mxCell>
        <mxCell id="wfQN2HbRyZ9VnJTfPjWH-60" style="rounded=1;orthogonalLoop=1;jettySize=auto;html=1;strokeColor=#23445D;strokeWidth=4;edgeStyle=elbowEdgeStyle;endArrow=block;endFill=1;" edge="1" parent="1" source="3">
          <mxGeometry relative="1" as="geometry">
            <mxPoint x="220" y="440" as="targetPoint" />
            <Array as="points">
              <mxPoint x="220" y="360" />
              <mxPoint x="230" y="380" />
              <mxPoint x="230" y="430" />
              <mxPoint x="220" y="370" />
            </Array>
          </mxGeometry>
        </mxCell>
        <mxCell id="wfQN2HbRyZ9VnJTfPjWH-71" value="" style="rounded=1;orthogonalLoop=1;jettySize=auto;html=1;strokeColor=#23445D;strokeWidth=4;edgeStyle=elbowEdgeStyle;endArrow=block;endFill=1;" edge="1" parent="1" source="3">
          <mxGeometry relative="1" as="geometry">
            <mxPoint x="470" y="442" as="targetPoint" />
          </mxGeometry>
        </mxCell>
        <mxCell id="3" value="Navigation" style="rounded=1;fillColor=#10739E;strokeColor=none;shadow=1;gradientColor=none;fontStyle=1;fontColor=#FFFFFF;fontSize=14;" parent="1" vertex="1">
          <mxGeometry x="360" y="350" width="220" height="60" as="geometry" />
        </mxCell>
        <mxCell id="29" value="" style="edgeStyle=orthogonalEdgeStyle;elbow=vertical;strokeWidth=4;endArrow=block;endFill=1;fontStyle=1;strokeColor=#23445D;entryX=0.551;entryY=-0.049;entryDx=0;entryDy=0;entryPerimeter=0;exitX=0.5;exitY=1;exitDx=0;exitDy=0;" parent="1" source="2" target="wfQN2HbRyZ9VnJTfPjWH-58" edge="1">
          <mxGeometry x="22" y="165.5" width="100" height="100" as="geometry">
            <mxPoint x="786" y="270" as="sourcePoint" />
            <mxPoint x="772" y="340" as="targetPoint" />
          </mxGeometry>
        </mxCell>
        <mxCell id="wfQN2HbRyZ9VnJTfPjWH-57" value="" style="edgeStyle=elbowEdgeStyle;strokeWidth=4;endArrow=block;endFill=1;fontStyle=1;strokeColor=#23445D;elbow=vertical;" edge="1" parent="1" source="2">
          <mxGeometry x="22" y="185.5" width="100" height="100" as="geometry">
            <mxPoint x="770" y="270" as="sourcePoint" />
            <mxPoint x="470" y="350" as="targetPoint" />
          </mxGeometry>
        </mxCell>
        <mxCell id="wfQN2HbRyZ9VnJTfPjWH-85" value="" style="edgeStyle=orthogonalEdgeStyle;rounded=0;orthogonalLoop=1;jettySize=auto;html=1;endArrow=block;endFill=1;strokeColor=#23445D;strokeWidth=4;" edge="1" parent="1" source="wfQN2HbRyZ9VnJTfPjWH-58" target="wfQN2HbRyZ9VnJTfPjWH-84">
          <mxGeometry relative="1" as="geometry" />
        </mxCell>
        <mxCell id="wfQN2HbRyZ9VnJTfPjWH-92" style="edgeStyle=orthogonalEdgeStyle;rounded=0;orthogonalLoop=1;jettySize=auto;html=1;endArrow=block;endFill=1;strokeColor=#23445D;strokeWidth=4;" edge="1" parent="1" source="wfQN2HbRyZ9VnJTfPjWH-58">
          <mxGeometry relative="1" as="geometry">
            <mxPoint x="1150" y="450" as="targetPoint" />
            <Array as="points">
              <mxPoint x="1150" y="380" />
            </Array>
          </mxGeometry>
        </mxCell>
        <mxCell id="wfQN2HbRyZ9VnJTfPjWH-58" value="ProductOverview" style="rounded=1;fillColor=#10739E;strokeColor=none;shadow=1;gradientColor=none;fontStyle=1;fontColor=#FFFFFF;fontSize=14;" vertex="1" parent="1">
          <mxGeometry x="877" y="350" width="220" height="60" as="geometry" />
        </mxCell>
        <mxCell id="wfQN2HbRyZ9VnJTfPjWH-69" value="" style="rounded=1;orthogonalLoop=1;jettySize=auto;html=1;strokeColor=#23445D;strokeWidth=4;edgeStyle=elbowEdgeStyle;endArrow=block;endFill=1;" edge="1" parent="1" source="wfQN2HbRyZ9VnJTfPjWH-64" target="wfQN2HbRyZ9VnJTfPjWH-66">
          <mxGeometry relative="1" as="geometry">
            <Array as="points">
              <mxPoint x="220" y="520" />
            </Array>
          </mxGeometry>
        </mxCell>
        <mxCell id="wfQN2HbRyZ9VnJTfPjWH-64" value="NavigationList" style="rounded=1;fillColor=#10739E;strokeColor=none;shadow=1;gradientColor=none;fontStyle=1;fontColor=#FFFFFF;fontSize=14;" vertex="1" parent="1">
          <mxGeometry x="100" y="442" width="220" height="58" as="geometry" />
        </mxCell>
        <mxCell id="wfQN2HbRyZ9VnJTfPjWH-66" value="NavigationListItem" style="rounded=1;fillColor=#10739E;strokeColor=none;shadow=1;gradientColor=none;fontStyle=1;fontColor=#FFFFFF;fontSize=14;" vertex="1" parent="1">
          <mxGeometry x="99" y="548" width="220" height="60" as="geometry" />
        </mxCell>
        <mxCell id="wfQN2HbRyZ9VnJTfPjWH-80" value="" style="rounded=1;orthogonalLoop=1;jettySize=auto;html=1;strokeColor=#23445D;strokeWidth=4;edgeStyle=elbowEdgeStyle;endArrow=block;endFill=1;" edge="1" parent="1" source="wfQN2HbRyZ9VnJTfPjWH-77" target="wfQN2HbRyZ9VnJTfPjWH-79">
          <mxGeometry relative="1" as="geometry" />
        </mxCell>
        <mxCell id="wfQN2HbRyZ9VnJTfPjWH-77" value="ShoppingCart" style="whiteSpace=wrap;html=1;fontSize=14;fillColor=#10739E;strokeColor=none;fontColor=#FFFFFF;rounded=1;shadow=1;gradientColor=none;fontStyle=1;" vertex="1" parent="1">
          <mxGeometry x="410" y="450" width="120" height="60" as="geometry" />
        </mxCell>
        <mxCell id="wfQN2HbRyZ9VnJTfPjWH-82" value="" style="rounded=1;orthogonalLoop=1;jettySize=auto;html=1;strokeColor=#23445D;strokeWidth=4;edgeStyle=elbowEdgeStyle;endArrow=block;endFill=1;" edge="1" parent="1" source="wfQN2HbRyZ9VnJTfPjWH-79">
          <mxGeometry relative="1" as="geometry">
            <mxPoint x="470" y="632" as="targetPoint" />
          </mxGeometry>
        </mxCell>
        <mxCell id="wfQN2HbRyZ9VnJTfPjWH-79" value="ShoppingCartList" style="whiteSpace=wrap;html=1;fontSize=14;fillColor=#10739E;strokeColor=none;fontColor=#FFFFFF;rounded=1;shadow=1;gradientColor=none;fontStyle=1;" vertex="1" parent="1">
          <mxGeometry x="390" y="542" width="160" height="60" as="geometry" />
        </mxCell>
        <mxCell id="wfQN2HbRyZ9VnJTfPjWH-81" value="ShoppingCartListItem" style="whiteSpace=wrap;html=1;fontSize=14;fillColor=#10739E;strokeColor=none;fontColor=#FFFFFF;rounded=1;shadow=1;gradientColor=none;fontStyle=1;" vertex="1" parent="1">
          <mxGeometry x="385" y="640" width="170" height="60" as="geometry" />
        </mxCell>
        <mxCell id="wfQN2HbRyZ9VnJTfPjWH-87" value="" style="edgeStyle=orthogonalEdgeStyle;rounded=0;orthogonalLoop=1;jettySize=auto;html=1;endArrow=block;endFill=1;strokeColor=#23445D;strokeWidth=4;" edge="1" parent="1" source="wfQN2HbRyZ9VnJTfPjWH-84" target="wfQN2HbRyZ9VnJTfPjWH-86">
          <mxGeometry relative="1" as="geometry" />
        </mxCell>
        <mxCell id="wfQN2HbRyZ9VnJTfPjWH-84" value="ProductGallery" style="whiteSpace=wrap;html=1;fontSize=14;fillColor=#10739E;strokeColor=none;fontColor=#FFFFFF;rounded=1;shadow=1;gradientColor=none;fontStyle=1;" vertex="1" parent="1">
          <mxGeometry x="711" y="450" width="120" height="60" as="geometry" />
        </mxCell>
        <mxCell id="wfQN2HbRyZ9VnJTfPjWH-89" value="" style="edgeStyle=orthogonalEdgeStyle;rounded=0;orthogonalLoop=1;jettySize=auto;html=1;endArrow=block;endFill=1;strokeColor=#23445D;strokeWidth=4;" edge="1" parent="1" source="wfQN2HbRyZ9VnJTfPjWH-86" target="wfQN2HbRyZ9VnJTfPjWH-88">
          <mxGeometry relative="1" as="geometry" />
        </mxCell>
        <mxCell id="wfQN2HbRyZ9VnJTfPjWH-86" value="ProductGalleryList" style="whiteSpace=wrap;html=1;fontSize=14;fillColor=#10739E;strokeColor=none;fontColor=#FFFFFF;rounded=1;shadow=1;gradientColor=none;fontStyle=1;" vertex="1" parent="1">
          <mxGeometry x="682" y="548" width="179" height="60" as="geometry" />
        </mxCell>
        <mxCell id="wfQN2HbRyZ9VnJTfPjWH-88" value="ProductGalleryListItem" style="whiteSpace=wrap;html=1;fontSize=14;fillColor=#10739E;strokeColor=none;fontColor=#FFFFFF;rounded=1;shadow=1;gradientColor=none;fontStyle=1;" vertex="1" parent="1">
          <mxGeometry x="686.75" y="640" width="168.5" height="60" as="geometry" />
        </mxCell>
        <mxCell id="wfQN2HbRyZ9VnJTfPjWH-91" value="ProductActions" style="whiteSpace=wrap;html=1;fontSize=14;fillColor=#10739E;strokeColor=none;fontColor=#FFFFFF;rounded=1;shadow=1;gradientColor=none;fontStyle=1;" vertex="1" parent="1">
          <mxGeometry x="1077.5" y="548" width="135" height="60" as="geometry" />
        </mxCell>
        <mxCell id="wfQN2HbRyZ9VnJTfPjWH-93" value="ProductDescription" style="whiteSpace=wrap;html=1;fontSize=14;fillColor=#10739E;strokeColor=none;fontColor=#FFFFFF;rounded=1;shadow=1;gradientColor=none;fontStyle=1;" vertex="1" parent="1">
          <mxGeometry x="1070" y="450" width="150" height="60" as="geometry" />
        </mxCell>
        <mxCell id="wfQN2HbRyZ9VnJTfPjWH-95" value="" style="edgeStyle=orthogonalEdgeStyle;rounded=0;orthogonalLoop=1;jettySize=auto;html=1;endArrow=block;endFill=1;strokeColor=#23445D;strokeWidth=4;entryX=0.5;entryY=0;entryDx=0;entryDy=0;exitX=0.5;exitY=1;exitDx=0;exitDy=0;" edge="1" parent="1" source="wfQN2HbRyZ9VnJTfPjWH-93" target="wfQN2HbRyZ9VnJTfPjWH-91">
          <mxGeometry relative="1" as="geometry">
            <mxPoint x="781" y="520" as="sourcePoint" />
            <mxPoint x="782" y="558" as="targetPoint" />
          </mxGeometry>
        </mxCell>
        <mxCell id="wfQN2HbRyZ9VnJTfPjWH-98" value="ModalGallery" style="rounded=1;fillColor=#10739E;strokeColor=none;shadow=1;gradientColor=none;fontStyle=1;fontColor=#FFFFFF;fontSize=14;" vertex="1" parent="1">
          <mxGeometry x="1260" y="350" width="220" height="60" as="geometry" />
        </mxCell>
      </root>
    </mxGraphModel>
  </diagram>
</mxfile>
